<svg xmlns="http://www.w3.org/2000/svg" aria-hidden="true" style="position:absolute;width:0;height:0;overflow:hidden">
    <defs>
        <symbol id="icon-logo-1" viewBox="0 0 254 32">
            <path fill="#fff"
                  d="M74.122 13.718H55.798V7.624h23.068V1.53h-23.11a6.049 6.049 0 0 0-6.051 6.051v6.179a6.049 6.049 0 0 0 6.051 6.051H74.08v6.094H50.14v6.094h23.982a6.052 6.052 0 0 0 6.052-6.052v-6.179a6.052 6.052 0 0 0-6.052-6.051zM109.606 1.53H91.214a6.052 6.052 0 0 0-5.588 3.736 6.032 6.032 0 0 0-.459 2.316v18.366a6.055 6.055 0 0 0 1.77 4.279A6.036 6.036 0 0 0 91.214 32h18.392a6.052 6.052 0 0 0 6.052-6.052V7.582a6.052 6.052 0 0 0-6.052-6.051zm-.042 24.376H91.282V7.624h18.282v18.282zM173.973 1.53h-17.935a6.055 6.055 0 0 0-6.052 6.051v24.418h6.094V21.986h17.85v10.013h6.094V7.581a6.052 6.052 0 0 0-6.053-6.052zm-.042 14.363h-17.85V7.624h17.85v8.269zM245.323 1.53h-17.931a6.054 6.054 0 0 0-6.065 6.052V32h6.094V21.987h17.859V32h6.094V7.582a6.052 6.052 0 0 0-6.051-6.051zm-.042 14.363h-17.846V7.624h17.846v8.269zm-35.459 10.013h-2.438l-8.735-21.837a4.03 4.03 0 0 0-3.745-2.539h-5.425a4.035 4.035 0 0 0-4.033 4.033V32h6.094V7.624h2.438l8.73 21.836a4.03 4.03 0 0 0 3.741 2.54h5.425a4.035 4.035 0 0 0 4.033-4.033V1.53h-6.094l.009 24.376zM127.151 1.53h-6.094v24.418A6.052 6.052 0 0 0 127.109 32h18.324v-6.094h-18.282V1.53zM6.449 24.763a1.17 1.17 0 0 1 .846-.381h26.593a.583.583 0 0 1 .423.977l-5.637 6.259a1.17 1.17 0 0 1-.846.381H1.218a.592.592 0 0 1-.528-.352.576.576 0 0 1 .105-.625l5.654-6.259zm27.888-5.188a.585.585 0 0 1-.107.879.583.583 0 0 1-.316.098l-26.602.021a1.188 1.188 0 0 1-.846-.381L.787 13.954a.585.585 0 0 1 .107-.879.575.575 0 0 1 .316-.098l26.602-.021a1.184 1.184 0 0 1 .846.381l5.679 6.238zM6.449 1.911a1.17 1.17 0 0 1 .846-.381l26.61.021a.583.583 0 0 1 .423.977l-5.654 6.238a1.17 1.17 0 0 1-.846.381H1.218a.592.592 0 0 1-.528-.352.576.576 0 0 1 .105-.625l5.654-6.259z"
                  style="fill:var(--color1, #fff)"/>
        </symbol>
        <symbol id="icon-medium" viewBox="0 0 32 32">
            <path fill="#fff"
                  d="M4.469 8.894a1.179 1.179 0 0 0-.381-.987l-2.819-3.4v-.506h8.762l6.775 14.856 5.956-14.856h8.356v.506L28.705 6.82a.704.704 0 0 0-.269.675v17a.704.704 0 0 0 .269.675l2.356 2.312v.506H19.205v-.506l2.444-2.369c.237-.238.237-.313.237-.675V10.701l-6.794 17.244h-.919l-7.9-17.244v11.556c-.069.487.094.975.438 1.325l3.175 3.85v.506h-9v-.5l3.175-3.856a1.52 1.52 0 0 0 .406-1.325V8.894z"
                  style="fill:var(--color1, #fff)"/>
        </symbol>
        <symbol id="icon-nft" viewBox="0 0 34 32">
            <path fill="#fff"
                  d="M5.732 22.903a1.17 1.17 0 0 1 .834-.376h26.215a.574.574 0 0 1 .52.347.578.578 0 0 1-.103.616l-5.557 6.17a1.177 1.177 0 0 1-.835.376H.574a.574.574 0 0 1-.52-.347.58.58 0 0 1 .103-.617l5.573-6.17zm27.492-5.115a.572.572 0 0 1-.106.867.582.582 0 0 1-.311.097l-26.223.021a1.177 1.177 0 0 1-.834-.376L.152 12.248c-.075-.082-.124-.184-.143-.293s-.005-.222.04-.324a.573.573 0 0 1 .52-.347l26.223-.021a1.162 1.162 0 0 1 .835.376l5.598 6.149zM5.732.375a1.17 1.17 0 0 1 .834-.376L32.798.02a.574.574 0 0 1 .52.347.58.58 0 0 1-.103.617l-5.573 6.149a1.177 1.177 0 0 1-.835.376H.575a.574.574 0 0 1-.52-.347.58.58 0 0 1 .103-.617L5.731.375z"
                  style="fill:var(--color1, #fff)"/>
        </symbol>
        <symbol id="icon-play" viewBox="0 0 32 32">
            <path fill="none" stroke="#fff" stroke-linecap="round" stroke-linejoin="round" stroke-width="3.044"
                  d="m7.518 4.048 17.757 11.415L7.518 26.878V4.048z" style="stroke:var(--color1, #fff)"/>
        </symbol>
        <symbol id="icon-twitter" viewBox="0 0 32 32">
            <path fill="#fff"
                  d="M28.711 9.482c.02.284.02.569.02.853 0 8.67-6.599 18.66-18.66 18.66A18.53 18.53 0 0 1 0 26.051c.528.061 1.036.081 1.584.081 3.066 0 5.888-1.036 8.142-2.802a6.57 6.57 0 0 1-6.132-4.548c.406.061.812.101 1.239.101.589 0 1.178-.081 1.726-.223A6.56 6.56 0 0 1 1.3 12.223v-.081a6.6 6.6 0 0 0 2.964.832A6.556 6.556 0 0 1 1.34 7.512c0-1.218.325-2.335.893-3.31a18.639 18.639 0 0 0 13.523 6.863 7.437 7.437 0 0 1-.162-1.502 6.555 6.555 0 0 1 6.558-6.558c1.888 0 3.594.792 4.792 2.071a12.895 12.895 0 0 0 4.163-1.584 6.539 6.539 0 0 1-2.883 3.614 13.168 13.168 0 0 0 3.777-1.015 14.103 14.103 0 0 1-3.289 3.391z"
                  style="fill:var(--color1, #fff)"/>
        </symbol>
        <symbol id="icon-arrow-up" viewBox="0 0 32 32">
            <path fill="none" stroke="#fff" stroke-linecap="round" stroke-linejoin="round" stroke-width="2.667"
                  d="M16 29.333c7.364 0 13.333-5.97 13.333-13.333S23.363 2.667 16 2.667C8.636 2.667 2.667 8.637 2.667 16S8.637 29.333 16 29.333z"
                  style="stroke:var(--color1, #fff)"/>
            <path fill="none" stroke="#fff" stroke-linecap="round" stroke-linejoin="round" stroke-width="2.667"
                  d="M21.333 16 16 10.667 10.667 16M16 21.333V10.666" style="stroke:var(--color1, #fff)"/>
        </symbol>
        <symbol id="icon-right" viewBox="0 0 31 32">
            <path fill="none" stroke="#fff" stroke-linecap="round" stroke-linejoin="round" stroke-width="1.536"
                  d="M11.52 23.68 19.2 16l-7.68-7.68" style="stroke:var(--color1, #fff)"/>
        </symbol>
        <symbol id="icon-facebook" viewBox="0 0 20 32">
            <path fill="#fff"
                  d="m17.446 18 .889-5.791h-5.557V8.451c0-1.584.776-3.129 3.265-3.129h2.526V.391S16.276 0 14.085 0C9.509 0 6.517 2.774 6.517 7.795v4.414H1.43V18h5.087v14h6.261V18h4.668z"
                  style="fill:var(--color1, #fff)"/>
        </symbol>
        <symbol id="icon-globe" viewBox="0 0 32 32">
            <path fill="none" stroke="#fff" stroke-linecap="round" stroke-linejoin="round" stroke-width=".889"
                  d="M16 29.333c7.364 0 13.333-5.97 13.333-13.333S23.363 2.667 16 2.667C8.636 2.667 2.667 8.637 2.667 16S8.637 29.333 16 29.333zM2.667 16h26.667"
                  style="stroke:var(--color1, #fff)"/>
            <path fill="none" stroke="#fff" stroke-linecap="round" stroke-linejoin="round" stroke-width=".889"
                  d="M16 2.667A20.399 20.399 0 0 1 21.333 16 20.399 20.399 0 0 1 16 29.333 20.399 20.399 0 0 1 10.667 16 20.399 20.399 0 0 1 16 2.667v0z"
                  style="stroke:var(--color1, #fff)"/>
        </symbol>

        <symbol id="icon-Gradient-color" viewBox="0 0 12 32">
            <path d="M9.364 24.915c0.438 1.055-0.062 2.264-1.117 2.702s-2.264-0.062-2.702-1.117c-0.438-1.055 0.062-2.264 1.117-2.702s2.264 0.062 2.702 1.117z"></path>
            <path d="M10.279 10.917c0.438 1.055-0.062 2.264-1.117 2.702s-2.264-0.062-2.702-1.117c-0.438-1.055 0.062-2.264 1.117-2.702s2.264 0.062 2.702 1.117z"></path>
            <path d="M3.534 2.372c-1.549 1.111-3.572 0.942-4.519-0.378s-0.458-3.291 1.091-4.402c1.549-1.111 3.572-0.942 4.519 0.378s0.458 3.291-1.091 4.402z"></path>
            <path d="M-0.392 3.5c-1.33 0.316-2.605-0.256-2.847-1.276s0.64-2.103 1.971-2.419c1.33-0.316 2.605 0.256 2.847 1.276s-0.64 2.103-1.971 2.419z"></path>
            <path d="M3.106 2.221c0.309 0.745-0.044 1.601-0.79 1.91s-1.601-0.044-1.91-0.79c-0.309-0.745 0.044-1.601 0.79-1.91s1.601 0.044 1.91 0.79z"></path>
            <path d="M1.335 1.742c-1.443 0.342-2.801-0.178-3.034-1.161s0.747-2.057 2.19-2.399c1.443-0.342 2.801 0.178 3.034 1.161s-0.747 2.057-2.19 2.399z"></path>
        </symbol>
    </defs>
</svg>